<svg viewBox="0 0 240 240" xmlns="http://www.w3.org/2000/svg" role="img" aria-label="マスコットキャラクター エガミンちゃん">
  <ellipse cx="120" cy="216" rx="54" ry="9" fill="#ae3ec9" opacity="0.08"/>
  <path d="M91 42 H149 A46 46 0 0 1 195 88 V132 A46 46 0 0 1 149 178 H118 L76 204 L88 178 H91 A46 46 0 0 1 45 132 V88 A46 46 0 0 1 91 42 Z" fill="#f5e3fb" stroke="#ae3ec9" stroke-width="6" stroke-linejoin="round"/>
  <path d="M196 25 L200.8 35.2 L211 40 L200.8 44.8 L196 55 L191.2 44.8 L181 40 L191.2 35.2 Z" fill="#ae3ec9"/><path d="M214 58 L216.56 63.44 L222 66 L216.56 68.56 L214 74 L211.44 68.56 L206 66 L211.44 63.44 Z" fill="#ae3ec9"/>
  <circle cx="88" cy="128" r="10" fill="#d69ce6" opacity="0.55"/><circle cx="152" cy="128" r="10" fill="#d69ce6" opacity="0.55"/>
  <circle cx="100" cy="108" r="7" fill="#24242b"/><circle cx="140" cy="108" r="7" fill="#24242b"/><circle cx="102.5" cy="105" r="2.2" fill="#fff"/><circle cx="142.5" cy="105" r="2.2" fill="#fff"/>
  <path d="M108 130 Q120 141 132 130" stroke="#ae3ec9" stroke-width="4" fill="none" stroke-linecap="round"/>
  <path d="M134 176 v18" stroke="#ae3ec9" stroke-width="6" stroke-linecap="round"/><path d="M160 176 v18" stroke="#ae3ec9" stroke-width="6" stroke-linecap="round"/>
  <path d="M48 148 q-20 6 -24 22" stroke="#ae3ec9" stroke-width="6" fill="none" stroke-linecap="round"/><path d="M192 148 q20 6 24 22" stroke="#ae3ec9" stroke-width="6" fill="none" stroke-linecap="round"/>
  <g transform="translate(194 126) scale(0.95)"><path d="M20 4 C31 4 38 12 38 20 C38 26 33 28 29 28 C26 28 24 30 24 33 C24 36 22 37 19 37 C10 37 3 30 3 20 C3 11 10 4 20 4 Z" fill="#f5e3fb" stroke="#ae3ec9" stroke-width="4" stroke-linejoin="round"/><circle cx="13" cy="14" r="3.2" fill="#ae3ec9"/><circle cx="24" cy="12" r="3.2" fill="#ae3ec9"/><circle cx="31" cy="20" r="3.2" fill="#ae3ec9"/></g>
</svg>
